<mxfile host="Electron" agent="Mozilla/5.0 (Windows NT 10.0; Win64; x64) AppleWebKit/537.36 (KHTML, like Gecko) draw.io/27.0.9 Chrome/134.0.6998.205 Electron/35.4.0 Safari/537.36" version="27.0.9">
  <diagram name="PÃ¡gina-1" id="5GwL3XxCRGOWdnDcwvxw">
    <mxGraphModel dx="-144" dy="869" grid="1" gridSize="10" guides="1" tooltips="1" connect="1" arrows="1" fold="1" page="1" pageScale="1" pageWidth="827" pageHeight="1169" math="0" shadow="0">
      <root>
        <mxCell id="0" />
        <mxCell id="1" parent="0" />
        <mxCell id="pc865XKwe5RHinoYFdXC-1" value="MSForecast" style="swimlane;fontStyle=1;align=center;verticalAlign=top;childLayout=stackLayout;horizontal=1;startSize=26;horizontalStack=0;resizeParent=1;resizeParentMax=0;resizeLast=0;collapsible=1;marginBottom=0;whiteSpace=wrap;html=1;" vertex="1" parent="1">
          <mxGeometry x="946" y="330" width="210" height="190" as="geometry" />
        </mxCell>
        <mxCell id="pc865XKwe5RHinoYFdXC-2" value="- temperatura&lt;br&gt;- humedad" style="text;strokeColor=none;fillColor=none;align=left;verticalAlign=top;spacingLeft=4;spacingRight=4;overflow=hidden;rotatable=0;points=[[0,0.5],[1,0.5]];portConstraint=eastwest;whiteSpace=wrap;html=1;" vertex="1" parent="pc865XKwe5RHinoYFdXC-1">
          <mxGeometry y="26" width="210" height="44" as="geometry" />
        </mxCell>
        <mxCell id="pc865XKwe5RHinoYFdXC-3" value="" style="line;strokeWidth=1;fillColor=none;align=left;verticalAlign=middle;spacingTop=-1;spacingLeft=3;spacingRight=3;rotatable=0;labelPosition=right;points=[];portConstraint=eastwest;strokeColor=inherit;" vertex="1" parent="pc865XKwe5RHinoYFdXC-1">
          <mxGeometry y="70" width="210" height="8" as="geometry" />
        </mxCell>
        <mxCell id="pc865XKwe5RHinoYFdXC-4" value="+ upTemp(x)&lt;div&gt;+ downTemp(x)&lt;/div&gt;&lt;div&gt;+ upHumidity(x)&lt;/div&gt;&lt;div&gt;+ downHumidity(x)&lt;/div&gt;&lt;div&gt;+ readTemp()&lt;/div&gt;&lt;div&gt;+ readHumidity()&lt;/div&gt;" style="text;strokeColor=none;fillColor=none;align=left;verticalAlign=top;spacingLeft=4;spacingRight=4;overflow=hidden;rotatable=0;points=[[0,0.5],[1,0.5]];portConstraint=eastwest;whiteSpace=wrap;html=1;" vertex="1" parent="pc865XKwe5RHinoYFdXC-1">
          <mxGeometry y="78" width="210" height="112" as="geometry" />
        </mxCell>
        <mxCell id="pc865XKwe5RHinoYFdXC-5" value="ClimaModel" style="swimlane;fontStyle=1;align=center;verticalAlign=top;childLayout=stackLayout;horizontal=1;startSize=26;horizontalStack=0;resizeParent=1;resizeParentMax=0;resizeLast=0;collapsible=1;marginBottom=0;whiteSpace=wrap;html=1;" vertex="1" parent="1">
          <mxGeometry x="1276" y="330" width="210" height="80" as="geometry" />
        </mxCell>
        <mxCell id="pc865XKwe5RHinoYFdXC-7" value="" style="line;strokeWidth=1;fillColor=none;align=left;verticalAlign=middle;spacingTop=-1;spacingLeft=3;spacingRight=3;rotatable=0;labelPosition=right;points=[];portConstraint=eastwest;strokeColor=inherit;" vertex="1" parent="pc865XKwe5RHinoYFdXC-5">
          <mxGeometry y="26" width="210" height="8" as="geometry" />
        </mxCell>
        <mxCell id="pc865XKwe5RHinoYFdXC-8" value="+ guardarRegistro(registro)&lt;div&gt;+ leerHistorial()&lt;/div&gt;&lt;div&gt;&lt;br&gt;&lt;/div&gt;" style="text;strokeColor=none;fillColor=none;align=left;verticalAlign=top;spacingLeft=4;spacingRight=4;overflow=hidden;rotatable=0;points=[[0,0.5],[1,0.5]];portConstraint=eastwest;whiteSpace=wrap;html=1;" vertex="1" parent="pc865XKwe5RHinoYFdXC-5">
          <mxGeometry y="34" width="210" height="46" as="geometry" />
        </mxCell>
        <mxCell id="pc865XKwe5RHinoYFdXC-14" value="ClimaService" style="swimlane;fontStyle=1;align=center;verticalAlign=top;childLayout=stackLayout;horizontal=1;startSize=26;horizontalStack=0;resizeParent=1;resizeParentMax=0;resizeLast=0;collapsible=1;marginBottom=0;whiteSpace=wrap;html=1;" vertex="1" parent="1">
          <mxGeometry x="1276" y="540" width="260" height="210" as="geometry" />
        </mxCell>
        <mxCell id="pc865XKwe5RHinoYFdXC-15" value="- api: MSForecast&#xa;- model: ClimaModel" style="text;strokeColor=none;fillColor=none;align=left;verticalAlign=top;spacingLeft=4;spacingRight=4;overflow=hidden;rotatable=0;points=[[0,0.5],[1,0.5]];portConstraint=eastwest;whiteSpace=wrap;html=1;" vertex="1" parent="pc865XKwe5RHinoYFdXC-14">
          <mxGeometry y="26" width="260" height="44" as="geometry" />
        </mxCell>
        <mxCell id="pc865XKwe5RHinoYFdXC-16" value="" style="line;strokeWidth=1;fillColor=none;align=left;verticalAlign=middle;spacingTop=-1;spacingLeft=3;spacingRight=3;rotatable=0;labelPosition=right;points=[];portConstraint=eastwest;strokeColor=inherit;" vertex="1" parent="pc865XKwe5RHinoYFdXC-14">
          <mxGeometry y="70" width="260" height="8" as="geometry" />
        </mxCell>
        <mxCell id="pc865XKwe5RHinoYFdXC-17" value="+ ajustarTemperatura(valor)&#xa;+ ajustarHumedad(valor)&#xa;+ registrar()&#xa;+ getActual()&#xa;+ getHistorial()&#xa;- restaurarEstadoDesdeHistorial()&#xa;- simularAlertaSiEsNecesario(registro)" style="text;strokeColor=none;fillColor=none;align=left;verticalAlign=top;spacingLeft=4;spacingRight=4;overflow=hidden;rotatable=0;points=[[0,0.5],[1,0.5]];portConstraint=eastwest;whiteSpace=wrap;html=1;" vertex="1" parent="pc865XKwe5RHinoYFdXC-14">
          <mxGeometry y="78" width="260" height="132" as="geometry" />
        </mxCell>
        <mxCell id="pc865XKwe5RHinoYFdXC-18" value="ClimaController" style="swimlane;fontStyle=1;align=center;verticalAlign=top;childLayout=stackLayout;horizontal=1;startSize=26;horizontalStack=0;resizeParent=1;resizeParentMax=0;resizeLast=0;collapsible=1;marginBottom=0;whiteSpace=wrap;html=1;" vertex="1" parent="1">
          <mxGeometry x="946" y="630" width="260" height="140" as="geometry" />
        </mxCell>
        <mxCell id="pc865XKwe5RHinoYFdXC-19" value="- service: ClimaService" style="text;strokeColor=none;fillColor=none;align=left;verticalAlign=top;spacingLeft=4;spacingRight=4;overflow=hidden;rotatable=0;points=[[0,0.5],[1,0.5]];portConstraint=eastwest;whiteSpace=wrap;html=1;" vertex="1" parent="pc865XKwe5RHinoYFdXC-18">
          <mxGeometry y="26" width="260" height="24" as="geometry" />
        </mxCell>
        <mxCell id="pc865XKwe5RHinoYFdXC-20" value="" style="line;strokeWidth=1;fillColor=none;align=left;verticalAlign=middle;spacingTop=-1;spacingLeft=3;spacingRight=3;rotatable=0;labelPosition=right;points=[];portConstraint=eastwest;strokeColor=inherit;" vertex="1" parent="pc865XKwe5RHinoYFdXC-18">
          <mxGeometry y="50" width="260" height="8" as="geometry" />
        </mxCell>
        <mxCell id="pc865XKwe5RHinoYFdXC-21" value="&lt;div&gt;+ getActual()&lt;/div&gt;&lt;div&gt;+ getHistorial()&lt;/div&gt;&lt;div&gt;+ postTemperatura(req, res)&lt;/div&gt;&lt;div&gt;+ postHumedad(req, res)&lt;/div&gt;" style="text;strokeColor=none;fillColor=none;align=left;verticalAlign=top;spacingLeft=4;spacingRight=4;overflow=hidden;rotatable=0;points=[[0,0.5],[1,0.5]];portConstraint=eastwest;whiteSpace=wrap;html=1;" vertex="1" parent="pc865XKwe5RHinoYFdXC-18">
          <mxGeometry y="58" width="260" height="82" as="geometry" />
        </mxCell>
        <mxCell id="pc865XKwe5RHinoYFdXC-22" value="" style="endArrow=diamondThin;endFill=0;endSize=24;html=1;rounded=0;" edge="1" parent="1" source="pc865XKwe5RHinoYFdXC-14" target="pc865XKwe5RHinoYFdXC-18">
          <mxGeometry width="160" relative="1" as="geometry">
            <mxPoint x="1276" y="870" as="sourcePoint" />
            <mxPoint x="1436" y="870" as="targetPoint" />
          </mxGeometry>
        </mxCell>
        <mxCell id="pc865XKwe5RHinoYFdXC-23" value="" style="endArrow=diamondThin;endFill=0;endSize=24;html=1;rounded=0;" edge="1" parent="1" source="pc865XKwe5RHinoYFdXC-1" target="pc865XKwe5RHinoYFdXC-14">
          <mxGeometry width="160" relative="1" as="geometry">
            <mxPoint x="1240" y="701" as="sourcePoint" />
            <mxPoint x="1310" y="690" as="targetPoint" />
          </mxGeometry>
        </mxCell>
        <mxCell id="pc865XKwe5RHinoYFdXC-24" value="" style="endArrow=diamondThin;endFill=0;endSize=24;html=1;rounded=0;" edge="1" parent="1" source="pc865XKwe5RHinoYFdXC-5" target="pc865XKwe5RHinoYFdXC-14">
          <mxGeometry width="160" relative="1" as="geometry">
            <mxPoint x="1260" y="550" as="sourcePoint" />
            <mxPoint x="1380" y="624" as="targetPoint" />
          </mxGeometry>
        </mxCell>
      </root>
    </mxGraphModel>
  </diagram>
</mxfile>
